<svg width="104" height="20" viewBox="0 0 104 20" fill="none" xmlns="http://www.w3.org/2000/svg">
<path d="M86.7418 7.10319L83.749 6.80092V3.02258H81.1553V4.43316C81.1553 7.35508 82.3025 8.36263 83.6992 8.81603H81.1553V12.2921C81.1553 15.6674 82.8013 17.0276 85.9936 17.0276C89.186 17.0276 90.832 15.6674 90.832 12.2921V11.8387C90.8819 7.80848 88.737 7.3047 86.7418 7.10319ZM88.2881 14.6599H83.749V8.86641C84.2478 9.01754 84.7965 9.1183 85.2953 9.16868L88.2881 9.62208V14.6599ZM94.4234 3.02258C93.6253 3.02258 93.0766 3.57674 93.0766 4.38278C93.0766 5.18883 93.6253 5.74299 94.4234 5.74299C95.2215 5.74299 95.7701 5.18883 95.7701 4.38278C95.82 3.57674 95.2713 3.02258 94.4234 3.02258ZM100.658 7.05281V4.68505H98.1145C98.1145 8.06037 99.7605 9.42057 102.953 9.42057H104V7.05281H100.658ZM100.658 9.1183H98.1145V12.2921C98.1145 15.6674 99.7605 17.0276 102.953 17.0276H104V14.6599H100.658V9.1183ZM93.1764 17.0276H95.7701V7.05281H93.1764V17.0276Z" fill="#EABC4C"/>
<path d="M50.0294 7.10331L47.0366 6.80104V3.02271H44.4428V4.43328C44.4428 7.3552 45.5901 8.36275 46.9867 8.81615H44.4428V17.0277H47.0366V8.86653C47.5354 9.01767 48.0841 9.11842 48.5829 9.1688L51.5757 9.6222V17.0277H54.1695V11.8388C54.1695 7.8086 52.0246 7.30482 50.0294 7.10331ZM39.2553 14.66H36.1628V7.05293H33.569V12.2922C33.569 15.6675 35.215 17.0277 38.4074 17.0277H41.7992V7.05293H39.2553V14.66ZM30.5762 7.05293H27.9824V12.2922C27.9824 15.6675 29.6285 17.0277 32.8208 17.0277H33.8683V14.66H30.5263V7.05293H30.5762ZM74.2711 7.05293H69.4328V8.31238C69.4328 11.6877 71.0788 13.0479 74.2711 13.0479H79.1095V11.7884C79.1095 8.36275 77.4635 7.05293 74.2711 7.05293ZM76.5656 10.8816H71.9767V9.26956H76.5157V10.8816H76.5656ZM57.9604 3.02271C57.1623 3.02271 56.6136 3.57686 56.6136 4.38291C56.6136 5.18895 57.1623 5.74311 57.9604 5.74311C58.7584 5.74311 59.3071 5.18895 59.3071 4.38291C59.3071 3.57686 58.7584 3.02271 57.9604 3.02271ZM56.6635 17.0277H59.2572V7.05293H56.6635V17.0277ZM64.1954 9.11842H61.6016V12.2922C61.6016 15.6675 63.2476 17.0277 66.44 17.0277H67.4874V14.66H64.1954V9.11842ZM64.1954 4.68517H61.6016C61.6016 8.06049 63.2476 9.42069 66.44 9.42069H67.4874V7.05293H64.1954V4.68517ZM71.9767 12.6952H69.3829C69.3829 15.7179 71.0289 17.0277 74.2213 17.0277H78.5608V14.66H71.9268V12.6952H71.9767Z" fill="white"/>
<path d="M0.605328 6.52795C0.252223 7.18075 0 7.93398 0 8.68721H5.29656L7.46564 6.52795H0.605328Z" fill="#EABC4B"/>
<path d="M9.68495 4.36877H4.33795C2.72376 4.36877 1.31134 5.27265 0.554688 6.52803H7.46545L9.68495 4.36877Z" fill="#24BCFF"/>
<path d="M24.8183 0H19.4713C17.05 0 15.0827 1.95839 15.0827 4.36872H9.73568L14.1243 0H8.77726C6.35597 0 4.38867 1.95839 4.38867 4.36872V11.9512V12.0014C4.38867 16.3701 7.97016 19.8852 12.3083 19.8852H20.3793V4.31851L24.8183 0ZM14.7296 11.3486C14.0234 10.6456 14.0234 9.44045 14.7296 8.73744L17.3526 11.3486C16.6464 12.1019 15.4862 12.1019 14.7296 11.3486Z" fill="white"/>
</svg>
